<?xml version="1.0" encoding="UTF-8" standalone="no"?>
<!-- Created with Inkscape (http://www.inkscape.org/) -->

<svg
   width="1000.0001"
   height="1000.0001"
   viewBox="0 0 264.58335 264.58335"
   version="1.1"
   id="svg1"
   xml:space="preserve"
   inkscape:export-filename="Logo-StreetSaga-WEBP-1000X1000.webp"
   inkscape:export-xdpi="96"
   inkscape:export-ydpi="96"
   xmlns:inkscape="http://www.inkscape.org/namespaces/inkscape"
   xmlns:sodipodi="http://sodipodi.sourceforge.net/DTD/sodipodi-0.dtd"
   xmlns:xlink="http://www.w3.org/1999/xlink"
   xmlns="http://www.w3.org/2000/svg"
   xmlns:svg="http://www.w3.org/2000/svg"><sodipodi:namedview
     id="namedview1"
     pagecolor="#ffffff"
     bordercolor="#000000"
     borderopacity="0.25"
     inkscape:showpageshadow="2"
     inkscape:pageopacity="0.0"
     inkscape:pagecheckerboard="0"
     inkscape:deskcolor="#d1d1d1"
     inkscape:document-units="px"><inkscape:page
       x="0"
       y="0"
       width="264.58334"
       height="264.58334"
       id="page2"
       margin="0"
       bleed="0" /></sodipodi:namedview><defs
     id="defs1" /><g
     inkscape:label="Capa 1"
     inkscape:groupmode="layer"
     id="layer1"><image
       width="264.58334"
       height="264.58334"
       preserveAspectRatio="none"
       xlink:href="../../../Downloads/Gemini_Generated_Image_y5ox59y5ox59y5ox.png"
       id="image1"
       x="0"
       y="0"
       style="display:none"
       sodipodi:insensitive="true" /><path
       style="display:none;fill:#000000"
       d="m 105.07019,171.63733 c -1.06553,-0.24219 -2.32814,-0.85739 -2.99132,-1.45749 l -0.53856,-0.48735 0.51993,-0.67215 0.51993,-0.67214 0.82383,0.62355 c 0.45311,0.34296 1.07752,0.71824 1.38758,0.83395 1.20019,0.44792 3.08661,0.49348 3.8356,0.0926 0.5383,-0.28809 0.92686,-0.91282 0.92686,-1.49024 0,-1.05533 -0.57823,-1.46719 -3.06508,-2.18314 -3.39547,-0.97754 -4.21883,-1.68762 -4.21828,-3.63797 6e-4,-2.14907 1.55635,-3.42356 4.17908,-3.42356 1.46802,0 3.27225,0.54928 4.13395,1.25855 l 0.31913,0.26267 -0.37121,0.69279 c -0.20417,0.38103 -0.38756,0.71319 -0.40754,0.73813 -0.02,0.0249 -0.23153,-0.10355 -0.47012,-0.28553 -1.64881,-1.25761 -4.32633,-1.48864 -5.20129,-0.4488 -0.45219,0.53739 -0.53942,1.16457 -0.23456,1.68656 0.3382,0.57908 0.94417,0.95771 2.02894,1.26774 3.71382,1.06144 4.2806,1.35994 4.82022,2.53862 0.27977,0.6111 0.31876,0.8459 0.26507,1.59626 -0.1051,1.46898 -0.84584,2.39343 -2.42426,3.02551 -0.77505,0.31037 -2.77101,0.38391 -3.8379,0.14141 z m 32.90589,0.0639 c -3.03046,-0.56316 -5.08002,-3.04562 -5.07166,-6.14285 0.0105,-3.89813 2.97261,-6.64539 6.85426,-6.35714 1.30016,0.0965 2.4332,0.49898 3.39191,1.20475 0.85596,0.63011 0.85538,0.62364 0.13023,1.45746 l -0.38196,0.43919 -0.48533,-0.42613 c -2.52492,-2.2169 -6.68839,-1.03244 -7.61861,2.16741 -0.30217,1.03943 -0.19868,2.58621 0.23659,3.53603 1.28126,2.79591 4.99213,3.51163 7.35148,1.41789 l 0.54714,-0.48555 -0.0324,-0.89488 c -0.0179,-0.49218 -0.0585,-0.92096 -0.0904,-0.95284 -0.0319,-0.0319 -0.84126,-0.0542 -1.79862,-0.0495 l -1.74067,0.008 v -0.75863 -0.75862 h 2.58382 2.58382 v 3.22977 3.22978 h -0.71055 -0.71055 v -0.64595 c 0,-0.35528 -0.0286,-0.64596 -0.0635,-0.64596 -0.0349,0 -0.32359,0.19855 -0.64151,0.44123 -1.10365,0.84243 -2.90317,1.25194 -4.33346,0.98615 z m -21.7041,-0.19156 c 0,-0.15348 1.6944,-4.28672 4.24039,-10.34379 l 0.76024,-1.80868 h 0.93768 0.93768 l 1.60692,3.74655 c 1.95388,4.55549 3.53186,8.30668 3.53186,8.39597 0,0.0363 -0.39975,0.066 -0.88834,0.066 h -0.88834 l -0.51456,-1.25961 c -0.28301,-0.69279 -0.55,-1.36135 -0.59331,-1.4857 -0.072,-0.20689 -0.34328,-0.22608 -3.19547,-0.22608 -2.85931,0 -3.1217,0.0187 -3.1768,0.22608 -0.033,0.12435 -0.27615,0.77838 -0.54024,1.4534 l -0.48017,1.22732 -0.86877,0.0382 c -0.47783,0.021 -0.86877,0.008 -0.86877,-0.0297 z m 8.39742,-4.40877 c 0,-0.0398 -0.3148,-0.8101 -0.69956,-1.71178 -0.60808,-1.42504 -1.22218,-2.92608 -1.64801,-4.02827 -0.10939,-0.28314 -0.26382,0.0273 -1.28546,2.58382 -0.63862,1.59809 -1.19325,2.97829 -1.23251,3.06711 -0.0557,0.12604 0.47039,0.16148 2.39709,0.16148 1.35764,0 2.46845,-0.0326 2.46845,-0.0724 z m 25.37722,3.9804 c 0.0954,-0.26646 0.58078,-1.44372 1.07858,-2.61612 1.15112,-2.71114 2.70759,-6.43555 3.33391,-7.97755 l 0.48538,-1.19502 0.91445,1.4e-4 0.91444,1.5e-4 2.02781,4.74763 c 1.85154,4.33492 3.07524,7.3047 3.07524,7.46323 0,0.0341 -0.39887,0.062 -0.88638,0.062 h -0.88638 l -0.54479,-1.41559 c -0.34854,-0.90566 -0.6226,-1.43472 -0.7608,-1.46869 -0.39161,-0.0963 -3.16113,-0.10624 -4.62668,-0.0167 l -1.43927,0.088 -0.5391,1.4065 -0.5391,1.40649 h -0.8904 -0.89041 z m 8.23555,-4.10191 c -0.0228,-0.1235 -0.44736,-1.18281 -0.9434,-2.35402 -0.49605,-1.17121 -1.02478,-2.45779 -1.17497,-2.85908 -0.15708,-0.41972 -0.29994,-0.64729 -0.33635,-0.53582 -0.0348,0.10659 -0.57745,1.43491 -1.20586,2.95183 -0.62842,1.51693 -1.1425,2.82499 -1.1424,2.9068 1.3e-4,0.10753 0.67157,0.14406 2.42233,0.1318 2.22512,-0.0156 2.41878,-0.0352 2.38065,-0.24151 z M 66.078815,148.45021 c -2.813031,-0.57967 -5.429347,-1.8471 -7.412297,-3.59075 l -0.567595,-0.4991 1.357354,-1.83788 c 1.220661,-1.6528 1.375399,-1.81586 1.536529,-1.61916 0.4091,0.49941 2.325684,1.80144 3.40895,2.31586 2.389777,1.13485 5.288687,1.51436 7.431749,0.97291 1.994442,-0.5039 2.927981,-1.36888 3.061037,-2.83624 0.09617,-1.06056 -0.185634,-1.7909 -0.950949,-2.46455 -0.833438,-0.73363 -2.063277,-1.19475 -5.691304,-2.13392 -4.40454,-1.14018 -5.695498,-1.69313 -6.95338,-2.97831 -1.181626,-1.20726 -1.802314,-2.90536 -1.795055,-4.91096 0.01354,-3.73926 2.081021,-6.35312 5.931431,-7.49893 0.970833,-0.2889 1.496185,-0.35703 3.183322,-0.41279 2.327045,-0.0769 3.924809,0.13031 5.846489,0.75829 1.780261,0.58176 4.477273,2.0974 4.682112,2.6312 0.05046,0.13148 -1.440045,2.75756 -2.222007,3.9149 -0.01435,0.0212 -0.398693,-0.24339 -0.854086,-0.58808 -1.056873,-0.79994 -2.979722,-1.74833 -4.305467,-2.12355 -1.427985,-0.40416 -4.04522,-0.42468 -5.103048,-0.04 -1.050478,0.38199 -1.989154,1.35147 -2.182806,2.25444 -0.177402,0.8272 -0.08697,1.44202 0.315805,2.14712 0.585614,1.02518 1.592609,1.48463 5.521453,2.51923 3.361887,0.8853 4.686877,1.33983 5.872099,2.01439 1.704322,0.97 2.836295,2.27355 3.403467,3.91933 0.411133,1.193 0.422166,3.31068 0.0239,4.58629 -0.837332,2.68186 -3.007896,4.55224 -6.235977,5.37356 -1.586552,0.40366 -5.618217,0.47363 -7.301722,0.12671 z m 71.251305,-13.62549 v -13.51429 h 9.04338 9.04338 v 2.13048 2.13048 l -6.62105,0.0335 -6.62104,0.0335 -0.0287,3.45586 -0.0287,3.45586 h 5.87462 5.87462 v 2.14674 2.14674 l -2.55152,-0.0503 -2.55152,-0.0503 -1.16272,-0.6287 c -0.6395,-0.34579 -1.56968,-0.90267 -2.06706,-1.23752 -1.45735,-0.98112 -4.03748,-2.50316 -5.36143,-3.16275 -1.42153,-0.7082 -1.40514,-0.68074 0.32298,0.54134 0.71055,0.50248 1.8442,1.41834 2.51922,2.03523 0.67503,0.6169 1.58801,1.39332 2.02886,1.72538 0.44086,0.33206 0.80421,0.64735 0.80745,0.70064 0.003,0.0533 -0.83708,0.0969 -1.86737,0.0969 h -1.87328 v 3.55275 3.55276 h 6.78254 6.78253 v 2.13165 2.13166 h -8.96822 c -4.93251,0 -9.06017,0.0353 -9.17256,0.0784 -0.18554,0.0712 -0.20436,-1.16568 -0.20436,-13.43587 z m 24.60011,13.36822 c -0.0296,-0.0296 -0.0538,-3.10337 -0.0538,-6.83059 v -6.77675 l 0.29068,0.21402 c 0.9431,0.69441 3.2726,2.18258 3.89202,2.48637 l 0.72656,0.35634 v 3.13827 3.13827 h 6.78253 6.78254 v 2.12995 2.12995 l -9.18337,0.034 c -5.05085,0.0187 -9.20757,0.01 -9.23716,-0.0198 z m -70.36464,-11.25038 0.0337,-11.23963 H 87.463773 83.32825 v -2.19625 -2.19625 h 10.72286 10.72286 v 2.19625 2.19625 h -4.20012 -4.200115 l 0.0337,11.23963 0.03371,11.23964 h -2.45463 -2.454631 z m 18.50522,-2.20461 v -13.44423 l 6.68563,0.0483 c 6.49475,0.0469 6.71321,0.0566 7.65104,0.33976 3.21858,0.97162 5.44529,3.18348 6.20833,6.16692 0.35055,1.37067 0.35215,3.76243 0.003,5.12593 -0.62701,2.4516 -2.13717,4.41823 -4.20576,5.47703 -0.35528,0.18185 -0.66493,0.34745 -0.68812,0.36801 -0.0232,0.0206 1.23611,2.13553 2.79844,4.69993 l 2.8406,4.66256 h -2.8007 -2.80069 l -2.51697,-4.19325 -2.51697,-4.19324 -2.8745,-0.005 -2.8745,-0.005 v 4.19872 4.19871 h -2.45463 -2.45463 z m 13.21127,0.53905 c 1.48098,-0.58097 2.54433,-2.02533 2.7952,-3.79678 0.33707,-2.38016 -0.66301,-4.48522 -2.55149,-5.37061 l -0.72966,-0.34209 -3.90803,-0.0393 -3.90803,-0.0393 v 4.99377 4.99376 l 3.77884,-0.0538 c 3.54825,-0.0505 3.82425,-0.0716 4.52317,-0.34574 z m 69.47102,1.66555 v -11.23962 h -4.06952 -4.06952 v -2.19625 -2.19625 h 10.72286 10.72286 v 2.19625 2.19625 h -4.19871 -4.19871 v 11.23962 11.23963 h -2.45463 -2.45463 z m -22.73763,-0.26664 c -1.05699,-0.11245 -2.43471,-0.56179 -3.74654,-1.22191 -1.13747,-0.57239 -3.10297,-1.8774 -3.8122,-2.53114 l -0.5803,-0.5349 v -5.53877 -5.53876 l 9.07567,-2e-5 9.07568,-2e-5 v 2.13155 2.13154 l -6.62105,1.3e-4 -6.62104,1.3e-4 v 3.48815 3.48816 h 5.8782 5.87819 v 2.13166 2.13165 l -3.77884,-0.0172 c -2.07836,-0.009 -4.21486,-0.0636 -4.74777,-0.12027 z m -46.99736,-26.44362 0.0364,-1.51799 1.61489,-0.80445 c 2.76336,-1.37656 5.25839,-1.91933 8.26823,-1.79868 2.69538,0.10805 4.99116,0.71127 7.37357,1.93744 l 1.34683,0.69317 0.0364,1.50426 0.0364,1.50425 h -9.37455 -9.37456 z m -0.089,-8.21767 c -0.0496,-2.425917 -0.0708,-4.8138 -0.047,-5.306411 l 0.0432,-0.895657 0.97073,0.895657 c 0.5339,0.492611 1.31187,1.197366 1.72883,1.566121 l 0.7581,0.670465 -0.11591,1.364295 c -0.0637,0.75036 -0.0994,1.36429 -0.0793,1.36429 0.0201,0 0.60237,-0.28203 1.29387,-0.62673 0.6915,-0.3447 1.62062,-0.76589 2.06471,-0.93598 0.4441,-0.170082 0.80745,-0.350924 0.80745,-0.40187 0,-0.05095 -0.1446,-0.545398 -0.32133,-1.098782 -0.17673,-0.553384 -0.32207,-1.082208 -0.32298,-1.175163 -0.001,-0.126982 2.45245,-4.439695 2.64535,-4.649584 0.0195,-0.02119 0.40265,0.618307 0.85151,1.421101 0.44886,0.802795 1.04024,1.829121 1.31418,2.280724 l 0.49807,0.821097 -0.39417,1.175275 c -0.21679,0.646402 -0.35073,1.211524 -0.29764,1.255828 0.0531,0.0443 0.64882,0.301934 1.32384,0.572524 0.67502,0.27058 1.52507,0.65856 1.889,0.86217 0.36392,0.20361 0.70209,0.3702 0.75149,0.3702 0.0494,0 0.0495,-0.60197 2e-4,-1.33771 -0.0855,-1.277018 -0.0769,-1.346612 0.19039,-1.533833 0.154,-0.107865 0.97788,-0.821026 1.83086,-1.584803 0.85297,-0.763776 1.56604,-1.367077 1.58459,-1.340669 0.0506,0.07203 -0.17791,10.623515 -0.23123,10.676835 -0.0253,0.0253 -0.44884,-0.15682 -0.94115,-0.40475 -1.11167,-0.55982 -3.14709,-1.27455 -4.42819,-1.55494 -3.82653,-0.83748 -8.37292,-0.27396 -12.32684,1.5279 l -0.95047,0.43315 z"
       id="path1"
       inkscape:label="Original" /><path
       style="fill:#000000;stroke-width:1.6578"
       d="m 87.516086,197.53276 c -1.766434,-0.4015 -3.859585,-1.42138 -4.959003,-2.41622 l -0.892824,-0.80794 0.861939,-1.11429 0.861939,-1.11427 1.365743,1.03372 c 0.751165,0.56856 1.78631,1.1907 2.300327,1.38253 1.989672,0.74256 5.116974,0.81809 6.358648,0.15351 0.892392,-0.4776 1.536546,-1.51328 1.536546,-2.47052 0,-1.74953 -0.958588,-2.43231 -5.081282,-3.61921 -5.629002,-1.62056 -6.993966,-2.79773 -6.993054,-6.03102 9.95e-4,-3.56273 2.580114,-5.67558 6.928069,-5.67558 2.43368,0 5.424727,0.91059 6.853252,2.08642 l 0.529053,0.43545 -0.615392,1.14851 c -0.338472,0.63167 -0.642496,1.18233 -0.675619,1.22367 -0.03316,0.0413 -0.38383,-0.17166 -0.779364,-0.47335 -2.733392,-2.08486 -7.172179,-2.46787 -8.622685,-0.74402 -0.74964,0.89088 -0.894249,1.93062 -0.388853,2.79599 0.560667,0.95999 1.565243,1.58769 3.363572,2.10165 6.156761,1.75966 7.096368,2.25451 7.990949,4.20852 0.463802,1.01308 0.52844,1.40233 0.439433,2.64628 -0.174235,2.43528 -1.402232,3.96783 -4.018933,5.01569 -1.284877,0.51454 -4.593774,0.63645 -6.362461,0.23443 z m 54.551294,0.10594 c -5.02389,-0.93361 -8.42164,-5.04904 -8.40778,-10.18362 0.0174,-6.46232 4.92798,-11.01672 11.36297,-10.53886 2.1554,0.15997 4.03375,0.8272 5.6231,1.99723 1.41901,1.04459 1.41805,1.03387 0.2159,2.41617 l -0.63322,0.72809 -0.80457,-0.70644 c -4.18581,-3.67517 -11.08801,-1.71157 -12.63012,3.59314 -0.50094,1.72317 -0.32937,4.28742 0.39222,5.86203 2.12407,4.63506 8.27594,5.82158 12.18727,2.35057 l 0.90704,-0.80494 -0.0537,-1.48353 c -0.0297,-0.81594 -0.097,-1.52677 -0.14986,-1.57962 -0.0529,-0.0529 -1.39464,-0.0898 -2.98175,-0.0821 l -2.88568,0.0133 v -1.25765 -1.25764 h 4.28345 4.28345 v 5.35431 5.35433 h -1.17795 -1.17794 v -1.07086 c 0,-0.58898 -0.0474,-1.07087 -0.10527,-1.07087 -0.0579,0 -0.53645,0.32916 -1.0635,0.73147 -1.82963,1.39658 -4.81287,2.07547 -7.184,1.63484 z m -35.981,-0.31757 c 0,-0.25444 2.80897,-7.10653 7.02971,-17.14794 l 1.26032,-2.99842 h 1.55448 1.55448 l 2.66395,6.21103 c 3.23914,7.55208 5.85511,13.77081 5.85511,13.91883 0,0.0602 -0.6627,0.10942 -1.47268,0.10942 h -1.47269 l -0.85304,-2.08818 c -0.46917,-1.14852 -0.91179,-2.25685 -0.98359,-2.463 -0.11936,-0.34298 -0.56909,-0.3748 -5.29744,-0.3748 -4.74015,0 -5.17514,0.031 -5.26648,0.3748 -0.0547,0.20615 -0.45781,1.2904 -0.89561,2.40945 l -0.79603,2.03465 -1.44024,0.0633 c -0.79215,0.0348 -1.44025,0.0133 -1.44025,-0.0492 z m 13.92122,-7.30886 c 0,-0.066 -0.52188,-1.34298 -1.15973,-2.83779 -1.00807,-2.36243 -2.02613,-4.85086 -2.73207,-6.67807 -0.18135,-0.46939 -0.43736,0.0453 -2.13103,4.28347 -1.0587,2.64931 -1.97816,4.9374 -2.04325,5.08465 -0.0923,0.20894 0.77982,0.2677 3.97389,0.2677 2.25069,0 4.09219,-0.054 4.09219,-0.12003 z m 42.07029,6.59871 c 0.15815,-0.44174 0.96281,-2.39341 1.78807,-4.33701 1.90832,-4.49452 4.48863,-10.66885 5.52695,-13.22518 l 0.80466,-1.9811 1.51597,2.3e-4 1.51596,2.5e-4 3.3617,7.87062 c 3.06948,7.18642 5.09812,12.10973 5.09812,12.37254 0,0.0565 -0.66124,0.10279 -1.46943,0.10279 h -1.46944 l -0.90315,-2.34677 c -0.57781,-1.50141 -1.03214,-2.37848 -1.26125,-2.4348 -0.64921,-0.15965 -5.24052,-0.17612 -7.67011,-0.0277 l -2.38602,0.14588 -0.89372,2.33171 -0.89372,2.33167 h -1.4761 -1.47612 z m 13.65288,-6.80015 c -0.0378,-0.20474 -0.74163,-1.96086 -1.56397,-3.90249 -0.82235,-1.94163 -1.69888,-4.07453 -1.94786,-4.73979 -0.26041,-0.69581 -0.49724,-1.07308 -0.5576,-0.88828 -0.0577,0.1767 -0.9573,2.3788 -1.99907,4.89355 -1.0418,2.51476 -1.89404,4.68326 -1.89387,4.81889 2.1e-4,0.17826 1.11332,0.23882 4.01573,0.21849 3.68881,-0.0259 4.00986,-0.0583 3.94664,-0.40037 z M 22.876282,159.09316 c -4.663436,-0.96097 -9.000758,-3.06212 -12.288087,-5.95274 l -0.9409576,-0.82741 2.2502176,-3.04684 c 2.023609,-2.74001 2.280133,-3.01033 2.547254,-2.68424 0.678205,0.82792 3.855513,2.98643 5.651348,3.83923 3.961766,1.88136 8.767573,2.51051 12.320336,1.61289 3.306381,-0.83536 4.853999,-2.26933 5.074579,-4.70191 0.159431,-1.7582 -0.307743,-2.96896 -1.57648,-4.08574 -1.381672,-1.21621 -3.420496,-1.98065 -9.43503,-3.53761 -7.301836,-1.89019 -9.441983,-2.80687 -11.527296,-4.93744 -1.958897,-2.00139 -2.987872,-4.8165 -2.975838,-8.14139 0.02245,-6.19894 3.449912,-10.5322 9.833111,-12.43172 1.609444,-0.47894 2.480372,-0.59188 5.277304,-0.68432 3.85777,-0.12749 6.506539,0.21603 9.692295,1.25709 2.951312,0.96444 7.422412,3.47707 7.761993,4.362 0.08365,0.21797 -2.387303,4.57149 -3.683637,6.49012 -0.02379,0.0352 -0.660952,-0.40349 -1.415902,-0.97492 -1.752081,-1.32614 -4.939775,-2.89838 -7.137593,-3.52042 -2.367309,-0.67001 -6.706154,-0.70403 -8.45982,-0.0663 -1.74148,0.63327 -3.297614,2.24047 -3.61865,3.73741 -0.294097,1.37134 -0.144179,2.39058 0.523541,3.5595 0.970828,1.69954 2.640222,2.46122 9.153452,4.17638 5.573327,1.46765 7.769892,2.22117 9.73475,3.33945 2.825421,1.60807 4.702003,3.76909 5.642259,6.49747 0.681575,1.97775 0.699865,5.48844 0.03962,7.60315 -1.388128,4.44598 -4.986483,7.5467 -10.337988,8.90828 -2.630182,0.66919 -9.313866,0.78518 -12.104777,0.21006 z M 140.99651,136.50483 v -22.40398 h 14.9921 14.99209 v 3.5319 3.53191 l -10.97637,0.0555 -10.97634,0.0555 -0.0476,5.72913 -0.0476,5.72912 h 9.73892 9.73893 v 3.55886 3.55887 l -4.2299,-0.0834 -4.22991,-0.0834 -1.92754,-1.04226 c -1.06016,-0.57325 -2.60221,-1.49645 -3.42677,-2.05156 -2.41599,-1.6265 -6.69333,-4.14974 -8.88817,-5.24321 -2.35661,-1.17405 -2.32944,-1.12853 0.53544,0.89744 1.17795,0.83301 3.05731,2.35132 4.17636,3.374 1.11906,1.0227 2.6326,2.30985 3.36344,2.86033 0.73085,0.55049 1.33321,1.07318 1.33858,1.16153 0.005,0.0884 -1.3877,0.16064 -3.09572,0.16064 h -3.10552 v 5.88974 5.88977 h 11.24407 11.24407 v 3.53385 3.53386 h -14.86749 c -8.1771,0 -15.01993,0.0585 -15.20625,0.12997 -0.30759,0.11804 -0.33879,-1.93246 -0.33879,-22.27398 z m 40.782,22.16183 c -0.0491,-0.0491 -0.0892,-5.14477 -0.0892,-11.32375 v -11.23449 l 0.48189,0.3548 c 1.56347,1.15119 5.42531,3.61828 6.45218,4.1219 l 1.20449,0.59074 v 5.20263 5.20262 h 11.24407 11.24408 v 3.53103 3.53103 l -15.22417,0.0564 c -8.37329,0.031 -15.26429,0.0166 -15.31335,-0.0328 z m -116.650316,-18.65087 0.05587,-18.63306 h -6.85585 -6.85586 v -3.64094 -3.64094 h 17.776331 17.77633 v 3.64094 3.64094 h -6.962949 -6.96294 l 0.05587,18.63306 0.05588,18.63307 h -4.069279 -4.069281 z m 30.677907,-3.65481 v -22.28784 l 11.083419,0.0801 c 10.76697,0.0777 11.12914,0.0938 12.68387,0.56326 5.33575,1.61075 9.02719,5.27757 10.29216,10.22352 0.58114,2.27229 0.58379,6.23735 0.005,8.49776 -1.03946,4.06426 -3.543,7.32454 -6.9723,9.07982 -0.58898,0.30147 -1.10232,0.576 -1.14077,0.61009 -0.0385,0.0341 2.04923,3.54028 4.63925,7.79154 l 4.70914,7.72959 h -4.64299 -4.64298 l -4.17263,-6.95157 -4.17262,-6.95155 -4.76534,-0.008 -4.76534,-0.008 v 6.96063 6.96062 h -4.069302 -4.06928 z m 21.901599,0.89364 c 2.45517,-0.96313 4.21799,-3.35759 4.63388,-6.2943 0.55879,-3.94583 -1.09914,-7.4356 -4.22986,-8.9034 l -1.20963,-0.56711 -6.47871,-0.0652 -6.47872,-0.0652 v 8.27867 8.27865 l 6.26455,-0.0892 c 5.88227,-0.0837 6.33982,-0.1187 7.49849,-0.57317 z m 115.1689,2.76115 v -18.63304 h -6.74644 -6.74645 v -3.64094 -3.64094 h 17.77633 17.77632 v 3.64094 3.64094 h -6.96061 -6.9606 v 18.63304 18.63305 h -4.06929 -4.06928 z m -37.69439,-0.44204 c -1.75228,-0.18642 -4.03626,-0.93133 -6.21101,-2.02568 -1.8857,-0.94891 -5.1441,-3.11235 -6.31986,-4.19612 l -0.96202,-0.88676 v -9.18217 -9.18215 l 15.04563,-4e-5 15.04565,-3e-5 v 3.53368 3.53367 l -10.97637,2.1e-4 -10.97635,2.2e-4 v 5.78265 5.78267 h 9.74487 9.74486 v 3.53387 3.53385 l -6.26457,-0.0285 c -3.44549,-0.0149 -6.98738,-0.10544 -7.87083,-0.19939 z m -77.91212,-43.838223 0.0603,-2.516524 2.67716,-1.333616 c 4.58109,-2.28206 8.71735,-3.181864 13.70706,-2.981851 4.46838,0.179125 8.27432,1.179143 12.22388,3.211887 l 2.23277,1.149137 0.0603,2.493761 0.0603,2.493745 h -15.54111 -15.54112 z m -0.14754,-13.62325 c -0.0822,-4.021672 -0.11737,-7.980315 -0.0779,-8.796964 l 0.0716,-1.484808 1.60927,1.484808 c 0.8851,0.816649 2.17482,1.985 2.86605,2.596313 l 1.25678,1.111505 -0.19215,2.26172 c -0.10561,1.243946 -0.16479,2.261719 -0.13147,2.261719 0.0333,0 0.99861,-0.46755 2.14498,-1.038993 1.14637,-0.571444 2.68666,-1.269692 3.42287,-1.551667 0.73623,-0.281959 1.33859,-0.581755 1.33859,-0.66622 0,-0.08455 -0.23972,-0.904148 -0.5327,-1.821557 -0.29298,-0.917393 -0.53393,-1.794087 -0.53544,-1.94818 -0.002,-0.210507 4.06567,-7.360133 4.38546,-7.708089 0.0323,-0.03514 0.66751,1.025035 1.41163,2.355916 0.74412,1.330865 1.7245,3.032315 2.17864,3.780977 l 0.8257,1.361219 -0.65346,1.948362 c -0.35939,1.071602 -0.58144,2.008474 -0.49342,2.081915 0.088,0.07344 1.07561,0.500539 2.19466,0.949124 1.11904,0.448567 2.52825,1.09176 3.13158,1.429304 0.6033,0.337545 1.16392,0.613718 1.24582,0.613718 0.0819,0 0.0821,-0.997945 3.3e-4,-2.217655 -0.14175,-2.117043 -0.12749,-2.23241 0.31562,-2.542783 0.25531,-0.17881 1.62113,-1.361103 3.0352,-2.627281 1.41405,-1.266194 2.59618,-2.266345 2.62693,-2.222562 0.0839,0.119361 -0.29494,17.61165 -0.38333,17.700044 -0.0419,0.04194 -0.74409,-0.259976 -1.56024,-0.670994 -1.84292,-0.92807 -5.21724,-2.112949 -7.34104,-2.577779 -6.34361,-1.388375 -13.88061,-0.454171 -20.43541,2.532952 l -1.57568,0.718075 z"
       id="path1-4"
       inkscape:label="Copia" /></g></svg>
